<svg id="Layer_1" data-name="Layer 1" xmlns="http://www.w3.org/2000/svg" viewBox="0 0 21.7 14"><defs><style>.cls-1{fill:#fff;}</style></defs><g id="Group_649" data-name="Group 649"><g id="Group_648" data-name="Group 648"><g id="Group_647" data-name="Group 647"><g id="Path_881" data-name="Path 881"><path class="cls-1" d="M20.1,7a.6.6,0,0,0,0-.8C17.2,2.7,14.1.9,10.9.9,5.4.9,1.5,6,1.4,6.2a.6.6,0,0,0,0,.8c2.9,3.6,6,5.4,9.2,5.4C16.1,12.4,20,7.2,20.1,7Zm-9.5,4C7.9,11,5.3,9.6,2.8,6.6c.9-1.1,4.1-4.4,8.1-4.4s5.3,1.5,7.8,4.4c-.9,1.2-4.1,4.4-8.1,4.4Z"/></g><g id="Path_882" data-name="Path 882"><path class="cls-1" d="M10.8,3.2A3.4,3.4,0,0,0,7.4,6.6a3.4,3.4,0,1,0,6.7,0A3.4,3.4,0,0,0,10.8,3.2Zm0,5.5A2.1,2.1,0,0,1,8.7,6.6a2,2,0,0,1,2.1-2,2,2,0,0,1,2,2,2,2,0,0,1-2,2.1Z"/></g></g></g></g></svg>